<svg width="16" height="16" viewBox="0 0 16 16" fill="none" xmlns="http://www.w3.org/2000/svg">
<path d="M7.29559 12.0117L1.62715 6.34323C1.23537 5.95144 1.23537 5.31791 1.62715 4.93029L2.56912 3.98833C2.96091 3.59654 3.59444 3.59654 3.98206 3.98833L7.99998 8.00625L12.0179 3.98833C12.4097 3.59654 13.0432 3.59654 13.4308 3.98833L14.3728 4.93029C14.7646 5.32208 14.7646 5.95561 14.3728 6.34323L8.70437 12.0117C8.32091 12.4035 7.68738 12.4035 7.29559 12.0117V12.0117Z" fill="#1443BD"/>
<path d="M7.29559 12.0117L1.62715 6.34323C1.23537 5.95144 1.23537 5.31791 1.62715 4.93029L2.56912 3.98833C2.96091 3.59654 3.59444 3.59654 3.98206 3.98833L7.99998 8.00625L12.0179 3.98833C12.4097 3.59654 13.0432 3.59654 13.4308 3.98833L14.3728 4.93029C14.7646 5.32208 14.7646 5.95561 14.3728 6.34323L8.70437 12.0117C8.32091 12.4035 7.68738 12.4035 7.29559 12.0117V12.0117Z" fill="black" fill-opacity="0.5"/>
</svg>
