<svg width="160" height="38" viewBox="0 0 160 38" fill="none" xmlns="http://www.w3.org/2000/svg">
<path d="M10.9999 37.063H17.0956V26.4071H24.1363C31.0352 26.4071 35.7369 22.0732 35.7369 15.6394V15.5947C35.7369 9.13854 31.0352 4.827 24.1363 4.827H10.9999V37.063ZM22.6242 9.54065C26.9951 9.54065 29.5467 11.7523 29.5467 15.617V15.6617C29.5467 19.5265 26.9951 21.7604 22.6242 21.7604H17.0956V9.54065H22.6242Z" fill="#1443BD"/>
<path d="M10.9999 37.063H17.0956V26.4071H24.1363C31.0352 26.4071 35.7369 22.0732 35.7369 15.6394V15.5947C35.7369 9.13854 31.0352 4.827 24.1363 4.827H10.9999V37.063ZM22.6242 9.54065C26.9951 9.54065 29.5467 11.7523 29.5467 15.617V15.6617C29.5467 19.5265 26.9951 21.7604 22.6242 21.7604H17.0956V9.54065H22.6242Z" fill="black" fill-opacity="0.5"/>
<path d="M92.2582 29.2659H98.1411V14.7675C98.1411 11.8857 100.126 9.78577 102.961 9.78577C105.702 9.78577 107.403 11.4389 107.403 14.0973V29.2659H113.12V14.6335C113.12 11.774 115.058 9.78577 117.893 9.78577C120.775 9.78577 122.382 11.4612 122.382 14.3877V29.2659H128.265V13.0027C128.265 8.26668 125.028 5.09445 120.09 5.09445C116.475 5.09445 113.498 6.9263 112.293 9.87513H112.152C111.23 6.83694 108.702 5.09445 105.205 5.09445C101.898 5.09445 99.3225 6.79226 98.2593 9.38366H98.1411V5.58592H92.2582V29.2659Z" fill="#1443BD"/>
<path d="M92.2582 29.2659H98.1411V14.7675C98.1411 11.8857 100.126 9.78577 102.961 9.78577C105.702 9.78577 107.403 11.4389 107.403 14.0973V29.2659H113.12V14.6335C113.12 11.774 115.058 9.78577 117.893 9.78577C120.775 9.78577 122.382 11.4612 122.382 14.3877V29.2659H128.265V13.0027C128.265 8.26668 125.028 5.09445 120.09 5.09445C116.475 5.09445 113.498 6.9263 112.293 9.87513H112.152C111.23 6.83694 108.702 5.09445 105.205 5.09445C101.898 5.09445 99.3225 6.79226 98.2593 9.38366H98.1411V5.58592H92.2582V29.2659Z" fill="black" fill-opacity="0.5"/>
<path d="M70.5926 37.67C75.814 37.67 78.7437 35.8159 80.6574 30.6107L89.6591 6.12653H83.469L77.586 25.0705H77.4206L71.5612 6.12653H65.1348L74.1365 29.8288L73.7821 30.7894C73.0261 32.7777 71.7739 33.3808 69.5294 33.3808C68.7024 33.3808 68.0173 33.2691 67.5684 33.1798V37.4243C68.2772 37.536 69.4585 37.67 70.5926 37.67Z" fill="#1443BD"/>
<path d="M70.5926 37.67C75.814 37.67 78.7437 35.8159 80.6574 30.6107L89.6591 6.12653H83.469L77.586 25.0705H77.4206L71.5612 6.12653H65.1348L74.1365 29.8288L73.7821 30.7894C73.0261 32.7777 71.7739 33.3808 69.5294 33.3808C68.7024 33.3808 68.0173 33.2691 67.5684 33.1798V37.4243C68.2772 37.536 69.4585 37.67 70.5926 37.67Z" fill="black" fill-opacity="0.5"/>
<path d="M3.42584 12.5827C5.33959 12.5827 6.82806 11.1529 6.82806 9.34343C6.82806 7.53392 5.33959 6.12653 3.42584 6.12653C1.5121 6.12653 0 7.53392 0 9.34343C0 11.1529 1.5121 12.5827 3.42584 12.5827ZM3.42584 28.9799C5.33959 28.9799 6.82806 27.5502 6.82806 25.7407C6.82806 23.9535 5.33959 22.5238 3.42584 22.5238C1.5121 22.5238 0 23.9535 0 25.7407C0 27.5502 1.5121 28.9799 3.42584 28.9799Z" fill="#1443BD"/>
<path d="M3.42584 12.5827C5.33959 12.5827 6.82806 11.1529 6.82806 9.34343C6.82806 7.53392 5.33959 6.12653 3.42584 6.12653C1.5121 6.12653 0 7.53392 0 9.34343C0 11.1529 1.5121 12.5827 3.42584 12.5827ZM3.42584 28.9799C5.33959 28.9799 6.82806 27.5502 6.82806 25.7407C6.82806 23.9535 5.33959 22.5238 3.42584 22.5238C1.5121 22.5238 0 23.9535 0 25.7407C0 27.5502 1.5121 28.9799 3.42584 28.9799Z" fill="black" fill-opacity="0.5"/>
<path d="M59.7314 25.4259C64.3591 20.7982 64.3747 15.6014 62.3512 12.4753L62.2275 12.2514L58.3349 16.144L58.4121 16.288C59.1327 17.8105 58.822 20.2063 56.7504 22.2779C54.044 24.9843 50.6023 24.9508 47.5973 22.0795L59.9935 9.68325L58.7298 8.41953C53.6749 3.36466 47.1695 3.14082 42.1074 8.20288C37.0454 13.2649 37.2628 19.9979 42.5389 25.274L42.5546 25.2898C47.8781 30.6132 54.4188 30.7386 59.7314 25.4259ZM45.2379 11.2331C47.4431 9.02782 50.3738 8.75091 53.3284 11.104L45.0252 19.4071C42.7845 16.4982 43.0326 13.4383 45.2379 11.2331Z" fill="#1443BD"/>
<path d="M59.7314 25.4259C64.3591 20.7982 64.3747 15.6014 62.3512 12.4753L62.2275 12.2514L58.3349 16.144L58.4121 16.288C59.1327 17.8105 58.822 20.2063 56.7504 22.2779C54.044 24.9843 50.6023 24.9508 47.5973 22.0795L59.9935 9.68325L58.7298 8.41953C53.6749 3.36466 47.1695 3.14082 42.1074 8.20288C37.0454 13.2649 37.2628 19.9979 42.5389 25.274L42.5546 25.2898C47.8781 30.6132 54.4188 30.7386 59.7314 25.4259ZM45.2379 11.2331C47.4431 9.02782 50.3738 8.75091 53.3284 11.104L45.0252 19.4071C42.7845 16.4982 43.0326 13.4383 45.2379 11.2331Z" fill="black" fill-opacity="0.5"/>
<path d="M151.998 25.4259C156.625 20.7982 156.641 15.6014 154.617 12.4753L154.494 12.2514L150.601 16.144L150.678 16.288C151.399 17.8105 151.088 20.2063 149.017 22.2779C146.31 24.9843 142.868 24.9508 139.864 22.0794L152.26 9.68326L150.996 8.41954C145.941 3.36466 139.436 3.14082 134.374 8.20288C129.312 13.2649 129.529 19.9979 134.805 25.274L134.821 25.2898C140.144 30.6132 146.685 30.7386 151.998 25.4259ZM137.504 11.2331C139.709 9.02782 142.64 8.7509 145.595 11.104L137.291 19.4071C135.051 16.4982 135.299 13.4383 137.504 11.2331Z" fill="#1443BD"/>
<path d="M151.998 25.4259C156.625 20.7982 156.641 15.6014 154.617 12.4753L154.494 12.2514L150.601 16.144L150.678 16.288C151.399 17.8105 151.088 20.2063 149.017 22.2779C146.31 24.9843 142.868 24.9508 139.864 22.0794L152.26 9.68326L150.996 8.41954C145.941 3.36466 139.436 3.14082 134.374 8.20288C129.312 13.2649 129.529 19.9979 134.805 25.274L134.821 25.2898C140.144 30.6132 146.685 30.7386 151.998 25.4259ZM137.504 11.2331C139.709 9.02782 142.64 8.7509 145.595 11.104L137.291 19.4071C135.051 16.4982 135.299 13.4383 137.504 11.2331Z" fill="black" fill-opacity="0.5"/>
</svg>
